<?xml version="1.0" encoding="iso-8859-1"?>
<!-- Generator: Adobe Illustrator 18.0.0, SVG Export Plug-In . SVG Version: 6.00 Build 0)  -->
<!DOCTYPE svg PUBLIC "-//W3C//DTD SVG 1.1//EN" "http://www.w3.org/Graphics/SVG/1.1/DTD/svg11.dtd">
<svg version="1.1" id="Capa_1" xmlns="http://www.w3.org/2000/svg" xmlns:xlink="http://www.w3.org/1999/xlink" x="0px" y="0px"
	 viewBox="0 0 178.056 178.056" style="enable-background:new 0 0 178.056 178.056;" xml:space="preserve">
<g>
	<path d="M174.401,165.677l-45.129-60.279c-1.416-1.891-3.641-3.005-6.004-3.005h-29.25V65.268
		c15.735-2.415,27.824-16.044,27.824-32.444C121.842,14.725,107.118,0,89.018,0S56.194,14.725,56.194,32.824
		c0,16.4,12.089,30.029,27.824,32.444v37.125h-29.25c-2.363,0-4.588,1.114-6.004,3.005L3.347,166.061
		c-1.702,2.273-1.974,5.313-0.703,7.852c1.271,2.54,3.867,4.143,6.707,4.143h159.334c0.006,0,0.014,0,0.02,0
		c4.143,0,7.5-3.358,7.5-7.5C176.205,168.693,175.526,166.988,174.401,165.677z M71.194,32.824C71.194,22.996,79.19,15,89.018,15
		s17.824,7.996,17.824,17.824s-7.996,17.824-17.824,17.824S71.194,42.652,71.194,32.824z M24.336,163.056l34.187-45.663h25.496
		v9.782c-8.001,1.011-13.888,4.375-13.888,8.381c0,4.804,8.456,8.699,18.888,8.699s18.888-3.895,18.888-8.699
		c0-4.006-5.887-7.37-13.888-8.381v-9.782h25.496l34.187,45.663H24.336z"/>
</g>
<g>
</g>
<g>
</g>
<g>
</g>
<g>
</g>
<g>
</g>
<g>
</g>
<g>
</g>
<g>
</g>
<g>
</g>
<g>
</g>
<g>
</g>
<g>
</g>
<g>
</g>
<g>
</g>
<g>
</g>
</svg>
